<svg width="409" height="343" viewBox="0 0 409 343" fill="none" xmlns="http://www.w3.org/2000/svg">
<path d="M285.375 49.0508C279.823 59.714 278.712 63.9792 281.858 63.9792C288.891 63.9792 294.998 51.0057 290.742 44.6077C289.446 42.6528 288.151 43.7191 285.375 49.0508Z" fill="gray"/>
<path d="M297.959 53.4937C292.037 60.958 286.855 65.401 280.193 68.4222C270.384 73.043 264.277 79.2632 253.173 96.1466C247.806 104.144 244.475 107.165 236.517 110.72C215.604 120.139 188.214 122.805 161.935 118.006C156.753 117.118 156.197 117.473 154.532 122.805C152.126 130.802 142.502 136.845 132.139 136.845C125.661 136.845 123.44 135.956 119.554 131.335C114.557 125.826 113.262 120.139 116.593 118.184C117.703 117.651 118.444 119.072 118.444 121.561C118.444 127.959 125.846 132.224 134.73 130.98C151.386 128.314 152.681 110.009 136.95 102.189C120.849 94.1917 101.973 105.033 89.2029 129.736C85.1314 137.555 84.2061 141.998 84.2061 151.951C84.2061 167.235 89.573 178.964 104.193 195.137C114.557 206.511 115.297 208.466 124.181 241.344C127.327 253.074 129.733 258.05 135.47 264.448C139.541 268.891 145.093 275.644 147.499 279.376C150.83 283.997 154.347 286.663 158.973 287.907C168.967 290.572 177.11 290.217 178.406 286.84C179.886 282.931 178.591 281.331 169.707 277.066C158.418 271.556 154.162 267.113 150.09 256.983C146.944 248.808 146.759 244.365 147.684 214.864L148.61 181.63L160.639 185.007C167.116 186.784 183.032 191.582 195.987 195.67C208.757 199.935 220.416 203.49 221.897 203.845C225.783 204.734 223.192 226.771 217.27 242.41C214.679 249.341 211.903 259.116 210.978 264.092C210.237 269.068 208.572 274.933 207.461 276.888C204.87 281.686 204.87 288.44 207.646 291.106C208.942 292.35 212.643 293.238 215.974 293.238C223.377 293.238 225.598 289.684 222.082 283.286C219.861 279.554 220.231 277.599 223.932 268.713C233.001 247.386 250.582 211.842 258.91 197.269C272.605 174.166 279.638 160.126 283.524 148.396C288.151 134.89 294.813 123.871 302.031 118.184C306.843 114.274 309.249 113.741 322.759 113.741C338.489 113.741 344.041 111.786 347.928 104.677C350.889 99.701 347.558 95.258 336.824 89.3932C331.642 86.7274 327.57 83.8839 327.57 83.173C327.57 80.5072 315.726 69.1331 310.359 66.4673C305.547 63.9792 304.992 63.0906 305.917 57.2259C306.473 53.4937 307.583 48.873 308.323 46.5627C310.359 39.987 306.658 42.2974 297.959 53.4937ZM337.379 100.767C334.788 107.698 332.567 108.765 323.499 107.698C312.025 106.277 301.661 108.942 295.369 114.985C292.592 117.651 280.748 137.733 269.089 159.77C257.43 181.808 248.176 198.691 248.546 197.269C250.397 191.938 274.456 137.378 280.563 125.115C284.079 118.006 289.261 109.831 292.222 106.81C296.849 102.011 298.885 101.3 307.583 101.123C312.95 101.123 321.093 100.412 325.72 99.701C338.489 97.3906 338.674 97.3906 337.379 100.767Z" fill="gray"/>
<path d="M78.4688 202.068C76.9883 210.243 73.8421 216.285 64.5887 229.614C56.2607 241.166 56.2607 242.766 60.1471 271.023C61.6277 281.686 62.9231 291.106 62.9231 291.817C62.9231 292.705 67.1797 293.238 72.1765 293.238C84.391 293.238 86.2417 289.684 77.7286 282.042C71.9915 276.888 71.8064 276.355 72.5467 264.981C73.2869 252.718 74.5824 249.697 85.8716 231.925C97.901 213.264 99.1964 201.712 89.758 197.625C81.9851 194.248 79.7643 194.959 78.4688 202.068Z" fill="gray"/>
<path d="M263.167 212.376C261.871 214.864 260.946 218.951 260.946 221.439C260.946 230.503 281.118 271.556 291.852 283.997C295.739 288.618 313.135 291.639 315.541 288.084C317.206 285.241 311.839 279.554 305.917 278.31C302.401 277.421 299.44 273.334 292.222 258.761C287.225 248.808 281.488 234.235 279.453 226.593C277.417 218.951 274.826 211.665 273.715 210.421C270.384 206.511 265.387 207.577 263.167 212.376Z" fill="gray"/>
<path d="M285.375 49.0508C279.823 59.714 278.712 63.9792 281.858 63.9792C288.891 63.9792 294.998 51.0057 290.742 44.6077C289.446 42.6528 288.151 43.7191 285.375 49.0508Z" fill="gray"/>
<path d="M297.959 53.4937C292.037 60.958 286.855 65.401 280.193 68.4222C270.384 73.043 264.277 79.2632 253.173 96.1466C247.806 104.144 244.475 107.165 236.517 110.72C215.604 120.139 188.214 122.805 161.935 118.006C156.753 117.118 156.197 117.473 154.532 122.805C152.126 130.802 142.502 136.845 132.139 136.845C125.661 136.845 123.44 135.956 119.554 131.335C114.557 125.826 113.262 120.139 116.593 118.184C117.703 117.651 118.444 119.072 118.444 121.561C118.444 127.959 125.846 132.224 134.73 130.98C151.386 128.314 152.681 110.009 136.95 102.189C120.849 94.1917 101.973 105.033 89.2029 129.736C85.1314 137.555 84.2061 141.998 84.2061 151.951C84.2061 167.235 89.573 178.964 104.193 195.137C114.557 206.511 115.297 208.466 124.181 241.344C127.327 253.074 129.733 258.05 135.47 264.448C139.541 268.891 145.093 275.644 147.499 279.376C150.83 283.997 154.347 286.663 158.973 287.907C168.967 290.572 177.11 290.217 178.406 286.84C179.886 282.931 178.591 281.331 169.707 277.066C158.418 271.556 154.162 267.113 150.09 256.983C146.944 248.808 146.759 244.365 147.684 214.864L148.61 181.63L160.639 185.007C167.116 186.784 183.032 191.582 195.987 195.67C208.757 199.935 220.416 203.49 221.897 203.845C225.783 204.734 223.192 226.771 217.27 242.41C214.679 249.341 211.903 259.116 210.978 264.092C210.237 269.068 208.572 274.933 207.461 276.888C204.87 281.686 204.87 288.44 207.646 291.106C208.942 292.35 212.643 293.238 215.974 293.238C223.377 293.238 225.598 289.684 222.082 283.286C219.861 279.554 220.231 277.599 223.932 268.713C233.001 247.386 250.582 211.842 258.91 197.269C272.605 174.166 279.638 160.126 283.524 148.396C288.151 134.89 294.813 123.871 302.031 118.184C306.843 114.274 309.249 113.741 322.759 113.741C338.489 113.741 344.041 111.786 347.928 104.677C350.889 99.701 347.558 95.258 336.824 89.3932C331.642 86.7274 327.57 83.8839 327.57 83.173C327.57 80.5072 315.726 69.1331 310.359 66.4673C305.547 63.9792 304.992 63.0906 305.917 57.2259C306.473 53.4937 307.583 48.873 308.323 46.5627C310.359 39.987 306.658 42.2974 297.959 53.4937ZM337.379 100.767C334.788 107.698 332.567 108.765 323.499 107.698C312.025 106.277 301.661 108.942 295.369 114.985C292.592 117.651 280.748 137.733 269.089 159.77C257.43 181.808 248.176 198.691 248.546 197.269C250.397 191.938 274.456 137.378 280.563 125.115C284.079 118.006 289.261 109.831 292.222 106.81C296.849 102.011 298.885 101.3 307.583 101.123C312.95 101.123 321.093 100.412 325.72 99.701C338.489 97.3906 338.674 97.3906 337.379 100.767Z" fill="gray"/>
<path d="M78.4688 202.068C76.9883 210.243 73.8421 216.285 64.5887 229.614C56.2607 241.166 56.2607 242.766 60.1471 271.023C61.6277 281.686 62.9231 291.106 62.9231 291.817C62.9231 292.705 67.1797 293.238 72.1765 293.238C84.391 293.238 86.2417 289.684 77.7286 282.042C71.9915 276.888 71.8064 276.355 72.5467 264.981C73.2869 252.718 74.5824 249.697 85.8716 231.925C97.901 213.264 99.1964 201.712 89.758 197.625C81.9851 194.248 79.7643 194.959 78.4688 202.068Z" fill="gray"/>
<path d="M263.167 212.376C261.871 214.864 260.946 218.951 260.946 221.439C260.946 230.503 281.118 271.556 291.852 283.997C295.739 288.618 313.135 291.639 315.541 288.084C317.206 285.241 311.839 279.554 305.917 278.31C302.401 277.421 299.44 273.334 292.222 258.761C287.225 248.808 281.488 234.235 279.453 226.593C277.417 218.951 274.826 211.665 273.715 210.421C270.384 206.511 265.387 207.577 263.167 212.376Z" fill="gray"/>
</svg>
